<mxfile host="app.diagrams.net" modified="2022-11-17T19:20:18.194Z" agent="5.0 (Windows)" etag="WU2un5dyCzOLYSUD-OqR" version="20.5.3" type="github">
  <diagram id="1prsifcHVefPnYjk88bt" name="PÃ¡gina-1">
    <mxGraphModel dx="1447" dy="1889" grid="1" gridSize="10" guides="1" tooltips="1" connect="1" arrows="1" fold="1" page="1" pageScale="1" pageWidth="827" pageHeight="1169" math="0" shadow="0">
      <root>
        <mxCell id="0" />
        <mxCell id="1" parent="0" />
        <mxCell id="F9in04evqtmdsmJfP44s-1" value="GESTOR" style="rounded=0;whiteSpace=wrap;html=1;" parent="1" vertex="1">
          <mxGeometry x="110" y="110" width="120" height="60" as="geometry" />
        </mxCell>
        <mxCell id="F9in04evqtmdsmJfP44s-2" value="NEGOCIO" style="rounded=0;whiteSpace=wrap;html=1;" parent="1" vertex="1">
          <mxGeometry x="440" y="110" width="120" height="60" as="geometry" />
        </mxCell>
        <mxCell id="F9in04evqtmdsmJfP44s-3" value="CATEGORIA" style="rounded=0;whiteSpace=wrap;html=1;" parent="1" vertex="1">
          <mxGeometry x="445" y="300" width="120" height="60" as="geometry" />
        </mxCell>
        <mxCell id="F9in04evqtmdsmJfP44s-4" value="tiene" style="rhombus;whiteSpace=wrap;html=1;" parent="1" vertex="1">
          <mxGeometry x="460" y="190" width="70" height="60" as="geometry" />
        </mxCell>
        <mxCell id="F9in04evqtmdsmJfP44s-5" value="gestiona" style="rhombus;whiteSpace=wrap;html=1;" parent="1" vertex="1">
          <mxGeometry x="300" y="110" width="70" height="60" as="geometry" />
        </mxCell>
        <mxCell id="F9in04evqtmdsmJfP44s-8" value="" style="endArrow=none;html=1;rounded=0;exitX=1;exitY=0.5;exitDx=0;exitDy=0;entryX=0;entryY=0.5;entryDx=0;entryDy=0;" parent="1" source="F9in04evqtmdsmJfP44s-1" target="F9in04evqtmdsmJfP44s-5" edge="1">
          <mxGeometry width="50" height="50" relative="1" as="geometry">
            <mxPoint x="250" y="180" as="sourcePoint" />
            <mxPoint x="300" y="130" as="targetPoint" />
          </mxGeometry>
        </mxCell>
        <mxCell id="F9in04evqtmdsmJfP44s-9" value="" style="endArrow=none;html=1;rounded=0;exitX=1;exitY=0.5;exitDx=0;exitDy=0;entryX=0;entryY=0.5;entryDx=0;entryDy=0;edgeStyle=orthogonalEdgeStyle;" parent="1" edge="1">
          <mxGeometry width="50" height="50" relative="1" as="geometry">
            <mxPoint x="370" y="139.5" as="sourcePoint" />
            <mxPoint x="440" y="139.5" as="targetPoint" />
          </mxGeometry>
        </mxCell>
        <mxCell id="F9in04evqtmdsmJfP44s-10" value="" style="endArrow=none;html=1;rounded=0;exitX=0.5;exitY=1;exitDx=0;exitDy=0;endSize=6;" parent="1" source="F9in04evqtmdsmJfP44s-2" edge="1">
          <mxGeometry width="50" height="50" relative="1" as="geometry">
            <mxPoint x="495" y="160" as="sourcePoint" />
            <mxPoint x="495" y="190" as="targetPoint" />
          </mxGeometry>
        </mxCell>
        <mxCell id="F9in04evqtmdsmJfP44s-14" value="" style="endArrow=none;html=1;rounded=0;exitX=0.5;exitY=1;exitDx=0;exitDy=0;endSize=6;" parent="1" edge="1">
          <mxGeometry width="50" height="50" relative="1" as="geometry">
            <mxPoint x="497" y="247" as="sourcePoint" />
            <mxPoint x="492" y="267" as="targetPoint" />
          </mxGeometry>
        </mxCell>
        <mxCell id="F9in04evqtmdsmJfP44s-15" value="" style="endArrow=none;html=1;rounded=0;exitX=0.5;exitY=1;exitDx=0;exitDy=0;endSize=6;entryX=0.408;entryY=0;entryDx=0;entryDy=0;entryPerimeter=0;" parent="1" target="F9in04evqtmdsmJfP44s-3" edge="1">
          <mxGeometry width="50" height="50" relative="1" as="geometry">
            <mxPoint x="497" y="247" as="sourcePoint" />
            <mxPoint x="492" y="267" as="targetPoint" />
          </mxGeometry>
        </mxCell>
        <mxCell id="F9in04evqtmdsmJfP44s-24" value="PRODUCTO" style="rounded=0;whiteSpace=wrap;html=1;" parent="1" vertex="1">
          <mxGeometry x="700" y="280" width="120" height="60" as="geometry" />
        </mxCell>
        <mxCell id="F9in04evqtmdsmJfP44s-25" value="contiene" style="rhombus;whiteSpace=wrap;html=1;" parent="1" vertex="1">
          <mxGeometry x="600" y="280" width="70" height="60" as="geometry" />
        </mxCell>
        <mxCell id="F9in04evqtmdsmJfP44s-26" value="" style="endArrow=none;html=1;rounded=0;entryX=0;entryY=0.5;entryDx=0;entryDy=0;exitX=1;exitY=0.75;exitDx=0;exitDy=0;" parent="1" target="F9in04evqtmdsmJfP44s-25" edge="1" source="F9in04evqtmdsmJfP44s-3">
          <mxGeometry width="50" height="50" relative="1" as="geometry">
            <mxPoint x="560" y="310" as="sourcePoint" />
            <mxPoint x="600" y="300" as="targetPoint" />
          </mxGeometry>
        </mxCell>
        <mxCell id="F9in04evqtmdsmJfP44s-28" value="" style="endArrow=none;html=1;rounded=0;" parent="1" edge="1">
          <mxGeometry width="50" height="50" relative="1" as="geometry">
            <mxPoint x="670" y="309.5" as="sourcePoint" />
            <mxPoint x="700" y="310" as="targetPoint" />
          </mxGeometry>
        </mxCell>
        <mxCell id="F9in04evqtmdsmJfP44s-34" value="LINEA_PEDIDO" style="rounded=0;whiteSpace=wrap;html=1;" parent="1" vertex="1">
          <mxGeometry x="440" y="460" width="120" height="60" as="geometry" />
        </mxCell>
        <mxCell id="F9in04evqtmdsmJfP44s-35" value="CARRITO" style="rounded=0;whiteSpace=wrap;html=1;" parent="1" vertex="1">
          <mxGeometry x="780" y="460" width="120" height="60" as="geometry" />
        </mxCell>
        <mxCell id="F9in04evqtmdsmJfP44s-36" value="contiene" style="rhombus;whiteSpace=wrap;html=1;" parent="1" vertex="1">
          <mxGeometry x="600" y="460" width="70" height="60" as="geometry" />
        </mxCell>
        <mxCell id="F9in04evqtmdsmJfP44s-37" value="" style="endArrow=none;html=1;rounded=0;entryX=0;entryY=0.5;entryDx=0;entryDy=0;" parent="1" target="F9in04evqtmdsmJfP44s-36" edge="1">
          <mxGeometry width="50" height="50" relative="1" as="geometry">
            <mxPoint x="560" y="490" as="sourcePoint" />
            <mxPoint x="600" y="480" as="targetPoint" />
          </mxGeometry>
        </mxCell>
        <mxCell id="F9in04evqtmdsmJfP44s-38" value="" style="endArrow=none;html=1;rounded=0;entryX=0;entryY=0.5;entryDx=0;entryDy=0;" parent="1" target="F9in04evqtmdsmJfP44s-35" edge="1">
          <mxGeometry width="50" height="50" relative="1" as="geometry">
            <mxPoint x="670" y="489.5" as="sourcePoint" />
            <mxPoint x="700" y="490" as="targetPoint" />
          </mxGeometry>
        </mxCell>
        <mxCell id="F9in04evqtmdsmJfP44s-39" value="" style="endArrow=none;html=1;rounded=0;endSize=6;entryX=0.5;entryY=1;entryDx=0;entryDy=0;exitX=0.5;exitY=0;exitDx=0;exitDy=0;" parent="1" source="F9in04evqtmdsmJfP44s-34" target="F9in04evqtmdsmJfP44s-3" edge="1">
          <mxGeometry width="50" height="50" relative="1" as="geometry">
            <mxPoint x="490" y="410" as="sourcePoint" />
            <mxPoint x="540" y="360" as="targetPoint" />
          </mxGeometry>
        </mxCell>
        <mxCell id="F9in04evqtmdsmJfP44s-40" value="ETIQUETA" style="rounded=0;whiteSpace=wrap;html=1;" parent="1" vertex="1">
          <mxGeometry x="700" y="110" width="120" height="60" as="geometry" />
        </mxCell>
        <mxCell id="F9in04evqtmdsmJfP44s-41" value="tiene" style="rhombus;whiteSpace=wrap;html=1;" parent="1" vertex="1">
          <mxGeometry x="720" y="200" width="70" height="60" as="geometry" />
        </mxCell>
        <mxCell id="F9in04evqtmdsmJfP44s-42" value="" style="endArrow=none;html=1;rounded=0;exitX=0.5;exitY=1;exitDx=0;exitDy=0;entryX=0.5;entryY=0;entryDx=0;entryDy=0;" parent="1" source="F9in04evqtmdsmJfP44s-40" target="F9in04evqtmdsmJfP44s-41" edge="1">
          <mxGeometry width="50" height="50" relative="1" as="geometry">
            <mxPoint x="840" y="180" as="sourcePoint" />
            <mxPoint x="890" y="130" as="targetPoint" />
          </mxGeometry>
        </mxCell>
        <mxCell id="F9in04evqtmdsmJfP44s-43" value="" style="endArrow=none;html=1;rounded=0;exitX=0.5;exitY=1;exitDx=0;exitDy=0;entryX=0.5;entryY=0;entryDx=0;entryDy=0;" parent="1" source="F9in04evqtmdsmJfP44s-41" target="F9in04evqtmdsmJfP44s-24" edge="1">
          <mxGeometry width="50" height="50" relative="1" as="geometry">
            <mxPoint x="700" y="260" as="sourcePoint" />
            <mxPoint x="770" y="260" as="targetPoint" />
          </mxGeometry>
        </mxCell>
        <mxCell id="F9in04evqtmdsmJfP44s-44" value="n" style="text;html=1;align=center;verticalAlign=middle;resizable=0;points=[];autosize=1;strokeColor=none;fillColor=none;" parent="1" vertex="1">
          <mxGeometry x="245" y="105" width="30" height="30" as="geometry" />
        </mxCell>
        <mxCell id="F9in04evqtmdsmJfP44s-45" value="n" style="text;html=1;align=center;verticalAlign=middle;resizable=0;points=[];autosize=1;strokeColor=none;fillColor=none;" parent="1" vertex="1">
          <mxGeometry x="399" y="105" width="30" height="30" as="geometry" />
        </mxCell>
        <mxCell id="F9in04evqtmdsmJfP44s-46" value="N:M" style="text;html=1;align=center;verticalAlign=middle;resizable=0;points=[];autosize=1;strokeColor=none;fillColor=none;" parent="1" vertex="1">
          <mxGeometry x="315" y="80" width="40" height="30" as="geometry" />
        </mxCell>
        <mxCell id="F9in04evqtmdsmJfP44s-47" value="id_negocio" style="ellipse;whiteSpace=wrap;html=1;" parent="1" vertex="1">
          <mxGeometry x="220" y="250" width="95" height="40" as="geometry" />
        </mxCell>
        <mxCell id="F9in04evqtmdsmJfP44s-48" value="" style="endArrow=none;html=1;rounded=0;endSize=6;" parent="1" edge="1">
          <mxGeometry width="50" height="50" relative="1" as="geometry">
            <mxPoint x="335" y="210" as="sourcePoint" />
            <mxPoint x="334.5" y="170" as="targetPoint" />
          </mxGeometry>
        </mxCell>
        <mxCell id="F9in04evqtmdsmJfP44s-50" value="" style="endArrow=none;html=1;rounded=0;endSize=6;" parent="1" edge="1">
          <mxGeometry width="50" height="50" relative="1" as="geometry">
            <mxPoint x="200" y="210" as="sourcePoint" />
            <mxPoint x="407.5" y="210" as="targetPoint" />
          </mxGeometry>
        </mxCell>
        <mxCell id="F9in04evqtmdsmJfP44s-51" value="" style="endArrow=none;html=1;rounded=0;endSize=6;" parent="1" edge="1">
          <mxGeometry width="50" height="50" relative="1" as="geometry">
            <mxPoint x="275.5" y="250" as="sourcePoint" />
            <mxPoint x="275" y="210" as="targetPoint" />
          </mxGeometry>
        </mxCell>
        <mxCell id="F9in04evqtmdsmJfP44s-54" value="rol" style="ellipse;whiteSpace=wrap;html=1;" parent="1" vertex="1">
          <mxGeometry x="290" y="250" width="95" height="40" as="geometry" />
        </mxCell>
        <mxCell id="F9in04evqtmdsmJfP44s-55" value="" style="endArrow=none;html=1;rounded=0;endSize=6;" parent="1" edge="1">
          <mxGeometry width="50" height="50" relative="1" as="geometry">
            <mxPoint x="335.5" y="250" as="sourcePoint" />
            <mxPoint x="335" y="210" as="targetPoint" />
          </mxGeometry>
        </mxCell>
        <mxCell id="F9in04evqtmdsmJfP44s-56" value="unido" style="ellipse;whiteSpace=wrap;html=1;" parent="1" vertex="1">
          <mxGeometry x="355" y="250" width="95" height="40" as="geometry" />
        </mxCell>
        <mxCell id="F9in04evqtmdsmJfP44s-57" value="" style="endArrow=none;html=1;rounded=0;endSize=6;" parent="1" edge="1">
          <mxGeometry width="50" height="50" relative="1" as="geometry">
            <mxPoint x="400.5" y="250" as="sourcePoint" />
            <mxPoint x="400" y="210" as="targetPoint" />
          </mxGeometry>
        </mxCell>
        <mxCell id="F9in04evqtmdsmJfP44s-58" value="id_gestor" style="ellipse;whiteSpace=wrap;html=1;" parent="1" vertex="1">
          <mxGeometry x="135" y="250" width="95" height="40" as="geometry" />
        </mxCell>
        <mxCell id="F9in04evqtmdsmJfP44s-59" value="" style="endArrow=none;html=1;rounded=0;endSize=6;" parent="1" edge="1">
          <mxGeometry width="50" height="50" relative="1" as="geometry">
            <mxPoint x="205.5" y="250" as="sourcePoint" />
            <mxPoint x="205" y="210" as="targetPoint" />
          </mxGeometry>
        </mxCell>
        <mxCell id="F9in04evqtmdsmJfP44s-60" value="" style="endArrow=none;html=1;rounded=0;endSize=6;" parent="1" edge="1">
          <mxGeometry width="50" height="50" relative="1" as="geometry">
            <mxPoint x="400" y="570" as="sourcePoint" />
            <mxPoint x="650" y="570" as="targetPoint" />
          </mxGeometry>
        </mxCell>
        <mxCell id="F9in04evqtmdsmJfP44s-61" value="precio" style="ellipse;whiteSpace=wrap;html=1;" parent="1" vertex="1">
          <mxGeometry x="445" y="610" width="95" height="40" as="geometry" />
        </mxCell>
        <mxCell id="F9in04evqtmdsmJfP44s-62" value="" style="endArrow=none;html=1;rounded=0;endSize=6;" parent="1" edge="1">
          <mxGeometry width="50" height="50" relative="1" as="geometry">
            <mxPoint x="490.4999999999998" y="610" as="sourcePoint" />
            <mxPoint x="490" y="570" as="targetPoint" />
          </mxGeometry>
        </mxCell>
        <mxCell id="F9in04evqtmdsmJfP44s-63" value="cantidad" style="ellipse;whiteSpace=wrap;html=1;" parent="1" vertex="1">
          <mxGeometry x="530" y="610" width="95" height="40" as="geometry" />
        </mxCell>
        <mxCell id="F9in04evqtmdsmJfP44s-64" value="" style="endArrow=none;html=1;rounded=0;endSize=6;" parent="1" edge="1">
          <mxGeometry width="50" height="50" relative="1" as="geometry">
            <mxPoint x="575.4999999999998" y="610" as="sourcePoint" />
            <mxPoint x="575" y="570" as="targetPoint" />
          </mxGeometry>
        </mxCell>
        <mxCell id="F9in04evqtmdsmJfP44s-65" value="" style="endArrow=none;html=1;rounded=0;endSize=6;" parent="1" edge="1">
          <mxGeometry width="50" height="50" relative="1" as="geometry">
            <mxPoint x="499" y="570" as="sourcePoint" />
            <mxPoint x="499.41" y="520" as="targetPoint" />
          </mxGeometry>
        </mxCell>
        <mxCell id="F9in04evqtmdsmJfP44s-66" value="id_lineaPedido" style="ellipse;whiteSpace=wrap;html=1;" parent="1" vertex="1">
          <mxGeometry x="355" y="610" width="95" height="40" as="geometry" />
        </mxCell>
        <mxCell id="F9in04evqtmdsmJfP44s-67" value="" style="endArrow=none;html=1;rounded=0;endSize=6;" parent="1" edge="1">
          <mxGeometry width="50" height="50" relative="1" as="geometry">
            <mxPoint x="400.4999999999998" y="610" as="sourcePoint" />
            <mxPoint x="400" y="570" as="targetPoint" />
          </mxGeometry>
        </mxCell>
        <mxCell id="F9in04evqtmdsmJfP44s-71" value="fechaCreacion" style="ellipse;whiteSpace=wrap;html=1;" parent="1" vertex="1">
          <mxGeometry x="600" y="610" width="95" height="40" as="geometry" />
        </mxCell>
        <mxCell id="F9in04evqtmdsmJfP44s-72" value="" style="endArrow=none;html=1;rounded=0;endSize=6;" parent="1" edge="1">
          <mxGeometry width="50" height="50" relative="1" as="geometry">
            <mxPoint x="645.4999999999998" y="610" as="sourcePoint" />
            <mxPoint x="645" y="570" as="targetPoint" />
          </mxGeometry>
        </mxCell>
        <mxCell id="F9in04evqtmdsmJfP44s-74" value="" style="endArrow=none;html=1;rounded=0;endSize=6;" parent="1" edge="1">
          <mxGeometry width="50" height="50" relative="1" as="geometry">
            <mxPoint x="730" y="560" as="sourcePoint" />
            <mxPoint x="910" y="560" as="targetPoint" />
          </mxGeometry>
        </mxCell>
        <mxCell id="F9in04evqtmdsmJfP44s-75" value="precioTotal" style="ellipse;whiteSpace=wrap;html=1;" parent="1" vertex="1">
          <mxGeometry x="775" y="600" width="95" height="40" as="geometry" />
        </mxCell>
        <mxCell id="F9in04evqtmdsmJfP44s-76" value="" style="endArrow=none;html=1;rounded=0;endSize=6;" parent="1" edge="1">
          <mxGeometry width="50" height="50" relative="1" as="geometry">
            <mxPoint x="820.4999999999998" y="600" as="sourcePoint" />
            <mxPoint x="820" y="560" as="targetPoint" />
          </mxGeometry>
        </mxCell>
        <mxCell id="F9in04evqtmdsmJfP44s-77" value="lineasPedidos" style="ellipse;whiteSpace=wrap;html=1;" parent="1" vertex="1">
          <mxGeometry x="860" y="600" width="95" height="40" as="geometry" />
        </mxCell>
        <mxCell id="F9in04evqtmdsmJfP44s-78" value="" style="endArrow=none;html=1;rounded=0;endSize=6;" parent="1" edge="1">
          <mxGeometry width="50" height="50" relative="1" as="geometry">
            <mxPoint x="905.4999999999998" y="600" as="sourcePoint" />
            <mxPoint x="905" y="560" as="targetPoint" />
          </mxGeometry>
        </mxCell>
        <mxCell id="F9in04evqtmdsmJfP44s-79" value="" style="endArrow=none;html=1;rounded=0;endSize=6;" parent="1" edge="1">
          <mxGeometry width="50" height="50" relative="1" as="geometry">
            <mxPoint x="730.4999999999998" y="600" as="sourcePoint" />
            <mxPoint x="730" y="560" as="targetPoint" />
          </mxGeometry>
        </mxCell>
        <mxCell id="F9in04evqtmdsmJfP44s-81" value="idCarrito" style="ellipse;whiteSpace=wrap;html=1;" parent="1" vertex="1">
          <mxGeometry x="695" y="600" width="95" height="40" as="geometry" />
        </mxCell>
        <mxCell id="F9in04evqtmdsmJfP44s-82" value="" style="endArrow=none;html=1;rounded=0;endSize=6;" parent="1" edge="1">
          <mxGeometry width="50" height="50" relative="1" as="geometry">
            <mxPoint x="839.91" y="560" as="sourcePoint" />
            <mxPoint x="839.41" y="520" as="targetPoint" />
          </mxGeometry>
        </mxCell>
        <mxCell id="F9in04evqtmdsmJfP44s-83" value="" style="endArrow=none;html=1;rounded=0;endSize=6;" parent="1" edge="1">
          <mxGeometry width="50" height="50" relative="1" as="geometry">
            <mxPoint x="670" y="70" as="sourcePoint" />
            <mxPoint x="850" y="70" as="targetPoint" />
          </mxGeometry>
        </mxCell>
        <mxCell id="F9in04evqtmdsmJfP44s-84" value="precioTotal" style="ellipse;whiteSpace=wrap;html=1;" parent="1" vertex="1">
          <mxGeometry x="650" y="-20" width="95" height="40" as="geometry" />
        </mxCell>
        <mxCell id="F9in04evqtmdsmJfP44s-85" value="" style="endArrow=none;html=1;rounded=0;endSize=6;" parent="1" edge="1">
          <mxGeometry width="50" height="50" relative="1" as="geometry">
            <mxPoint x="760.5" y="110" as="sourcePoint" />
            <mxPoint x="760" y="70" as="targetPoint" />
          </mxGeometry>
        </mxCell>
        <mxCell id="F9in04evqtmdsmJfP44s-86" value="lineasPedidos" style="ellipse;whiteSpace=wrap;html=1;" parent="1" vertex="1">
          <mxGeometry x="775" y="-20" width="95" height="40" as="geometry" />
        </mxCell>
        <mxCell id="F9in04evqtmdsmJfP44s-89" value="" style="endArrow=none;html=1;rounded=0;endSize=6;entryX=0.5;entryY=1;entryDx=0;entryDy=0;" parent="1" target="F9in04evqtmdsmJfP44s-84" edge="1">
          <mxGeometry width="50" height="50" relative="1" as="geometry">
            <mxPoint x="670" y="70" as="sourcePoint" />
            <mxPoint x="720" y="20" as="targetPoint" />
          </mxGeometry>
        </mxCell>
        <mxCell id="F9in04evqtmdsmJfP44s-91" value="" style="endArrow=none;html=1;rounded=0;endSize=6;" parent="1" target="F9in04evqtmdsmJfP44s-86" edge="1">
          <mxGeometry width="50" height="50" relative="1" as="geometry">
            <mxPoint x="852.5" y="70" as="sourcePoint" />
            <mxPoint x="870" y="20" as="targetPoint" />
          </mxGeometry>
        </mxCell>
        <mxCell id="Bv2EEvw_s4JJtscVsMDb-62" value="" style="endArrow=none;html=1;rounded=0;endSize=6;" edge="1" parent="1">
          <mxGeometry width="50" height="50" relative="1" as="geometry">
            <mxPoint x="360" y="380" as="sourcePoint" />
            <mxPoint x="445" y="330" as="targetPoint" />
          </mxGeometry>
        </mxCell>
        <mxCell id="Bv2EEvw_s4JJtscVsMDb-63" value="" style="endArrow=none;html=1;rounded=0;endSize=6;" edge="1" parent="1">
          <mxGeometry width="50" height="50" relative="1" as="geometry">
            <mxPoint x="360" y="450" as="sourcePoint" />
            <mxPoint x="360" y="310" as="targetPoint" />
          </mxGeometry>
        </mxCell>
        <mxCell id="Bv2EEvw_s4JJtscVsMDb-65" value="" style="endArrow=none;html=1;rounded=0;endSize=6;" edge="1" parent="1">
          <mxGeometry width="50" height="50" relative="1" as="geometry">
            <mxPoint x="290" y="340" as="sourcePoint" />
            <mxPoint x="362.5" y="310" as="targetPoint" />
          </mxGeometry>
        </mxCell>
        <mxCell id="Bv2EEvw_s4JJtscVsMDb-66" value="" style="endArrow=none;html=1;rounded=0;endSize=6;" edge="1" parent="1">
          <mxGeometry width="50" height="50" relative="1" as="geometry">
            <mxPoint x="290.0000000000002" y="370" as="sourcePoint" />
            <mxPoint x="362.5000000000002" y="340" as="targetPoint" />
          </mxGeometry>
        </mxCell>
        <mxCell id="Bv2EEvw_s4JJtscVsMDb-67" value="" style="endArrow=none;html=1;rounded=0;endSize=6;" edge="1" parent="1">
          <mxGeometry width="50" height="50" relative="1" as="geometry">
            <mxPoint x="290.0000000000002" y="410" as="sourcePoint" />
            <mxPoint x="362.5000000000002" y="380" as="targetPoint" />
          </mxGeometry>
        </mxCell>
        <mxCell id="Bv2EEvw_s4JJtscVsMDb-68" value="" style="endArrow=none;html=1;rounded=0;endSize=6;" edge="1" parent="1">
          <mxGeometry width="50" height="50" relative="1" as="geometry">
            <mxPoint x="290.0000000000002" y="470" as="sourcePoint" />
            <mxPoint x="362.5000000000002" y="440" as="targetPoint" />
          </mxGeometry>
        </mxCell>
        <mxCell id="Bv2EEvw_s4JJtscVsMDb-70" value="idCategoria" style="ellipse;whiteSpace=wrap;html=1;" vertex="1" parent="1">
          <mxGeometry x="195" y="320" width="95" height="40" as="geometry" />
        </mxCell>
        <mxCell id="Bv2EEvw_s4JJtscVsMDb-71" value="nombre" style="ellipse;whiteSpace=wrap;html=1;" vertex="1" parent="1">
          <mxGeometry x="205" y="360" width="95" height="40" as="geometry" />
        </mxCell>
        <mxCell id="Bv2EEvw_s4JJtscVsMDb-73" value="descripcion" style="ellipse;whiteSpace=wrap;html=1;" vertex="1" parent="1">
          <mxGeometry x="205" y="400" width="95" height="40" as="geometry" />
        </mxCell>
        <mxCell id="Bv2EEvw_s4JJtscVsMDb-74" value="imagen" style="ellipse;whiteSpace=wrap;html=1;" vertex="1" parent="1">
          <mxGeometry x="212.5" y="450" width="95" height="40" as="geometry" />
        </mxCell>
        <mxCell id="Bv2EEvw_s4JJtscVsMDb-75" value="" style="endArrow=none;html=1;rounded=0;endSize=6;" edge="1" parent="1">
          <mxGeometry width="50" height="50" relative="1" as="geometry">
            <mxPoint x="820" y="320" as="sourcePoint" />
            <mxPoint x="920" y="320" as="targetPoint" />
          </mxGeometry>
        </mxCell>
        <mxCell id="Bv2EEvw_s4JJtscVsMDb-76" value="" style="endArrow=none;html=1;rounded=0;endSize=6;" edge="1" parent="1">
          <mxGeometry width="50" height="50" relative="1" as="geometry">
            <mxPoint x="920" y="410" as="sourcePoint" />
            <mxPoint x="920" y="200" as="targetPoint" />
          </mxGeometry>
        </mxCell>
        <mxCell id="Bv2EEvw_s4JJtscVsMDb-77" value="" style="endArrow=none;html=1;rounded=0;endSize=6;" edge="1" parent="1">
          <mxGeometry width="50" height="50" relative="1" as="geometry">
            <mxPoint x="920" y="200" as="sourcePoint" />
            <mxPoint x="1020" y="200" as="targetPoint" />
          </mxGeometry>
        </mxCell>
        <mxCell id="Bv2EEvw_s4JJtscVsMDb-78" value="" style="endArrow=none;html=1;rounded=0;endSize=6;" edge="1" parent="1">
          <mxGeometry width="50" height="50" relative="1" as="geometry">
            <mxPoint x="920" y="240" as="sourcePoint" />
            <mxPoint x="1020" y="240" as="targetPoint" />
          </mxGeometry>
        </mxCell>
        <mxCell id="Bv2EEvw_s4JJtscVsMDb-79" value="" style="endArrow=none;html=1;rounded=0;endSize=6;" edge="1" parent="1">
          <mxGeometry width="50" height="50" relative="1" as="geometry">
            <mxPoint x="920" y="290" as="sourcePoint" />
            <mxPoint x="1020" y="290" as="targetPoint" />
          </mxGeometry>
        </mxCell>
        <mxCell id="Bv2EEvw_s4JJtscVsMDb-80" value="" style="endArrow=none;html=1;rounded=0;endSize=6;" edge="1" parent="1">
          <mxGeometry width="50" height="50" relative="1" as="geometry">
            <mxPoint x="920" y="338.33" as="sourcePoint" />
            <mxPoint x="1020" y="338.33" as="targetPoint" />
          </mxGeometry>
        </mxCell>
        <mxCell id="Bv2EEvw_s4JJtscVsMDb-81" value="" style="endArrow=none;html=1;rounded=0;endSize=6;" edge="1" parent="1">
          <mxGeometry width="50" height="50" relative="1" as="geometry">
            <mxPoint x="920" y="399.99999999999994" as="sourcePoint" />
            <mxPoint x="1020" y="399.99999999999994" as="targetPoint" />
          </mxGeometry>
        </mxCell>
        <mxCell id="Bv2EEvw_s4JJtscVsMDb-82" value="" style="endArrow=none;html=1;rounded=0;endSize=6;" edge="1" parent="1">
          <mxGeometry width="50" height="50" relative="1" as="geometry">
            <mxPoint x="920" y="369.99999999999994" as="sourcePoint" />
            <mxPoint x="1020" y="369.99999999999994" as="targetPoint" />
          </mxGeometry>
        </mxCell>
        <mxCell id="Bv2EEvw_s4JJtscVsMDb-86" value="idProducto" style="ellipse;whiteSpace=wrap;html=1;" vertex="1" parent="1">
          <mxGeometry x="1020" y="180" width="95" height="40" as="geometry" />
        </mxCell>
        <mxCell id="Bv2EEvw_s4JJtscVsMDb-87" value="nombre" style="ellipse;whiteSpace=wrap;html=1;" vertex="1" parent="1">
          <mxGeometry x="1020" y="230" width="95" height="40" as="geometry" />
        </mxCell>
        <mxCell id="Bv2EEvw_s4JJtscVsMDb-88" value="descripcion" style="ellipse;whiteSpace=wrap;html=1;" vertex="1" parent="1">
          <mxGeometry x="1010" y="280" width="95" height="40" as="geometry" />
        </mxCell>
        <mxCell id="Bv2EEvw_s4JJtscVsMDb-89" value="precio" style="ellipse;whiteSpace=wrap;html=1;" vertex="1" parent="1">
          <mxGeometry x="1020" y="320" width="95" height="40" as="geometry" />
        </mxCell>
        <mxCell id="Bv2EEvw_s4JJtscVsMDb-90" value="cantidad" style="ellipse;whiteSpace=wrap;html=1;" vertex="1" parent="1">
          <mxGeometry x="1020" y="350" width="95" height="40" as="geometry" />
        </mxCell>
        <mxCell id="Bv2EEvw_s4JJtscVsMDb-91" value="imagen" style="ellipse;whiteSpace=wrap;html=1;" vertex="1" parent="1">
          <mxGeometry x="1020" y="390" width="95" height="30" as="geometry" />
        </mxCell>
        <mxCell id="Bv2EEvw_s4JJtscVsMDb-92" value="" style="endArrow=none;html=1;rounded=0;endSize=6;" edge="1" parent="1">
          <mxGeometry width="50" height="50" relative="1" as="geometry">
            <mxPoint x="398.75" y="69.99999999999977" as="sourcePoint" />
            <mxPoint x="578.75" y="69.99999999999977" as="targetPoint" />
          </mxGeometry>
        </mxCell>
        <mxCell id="Bv2EEvw_s4JJtscVsMDb-93" value="idNegocio" style="ellipse;whiteSpace=wrap;html=1;" vertex="1" parent="1">
          <mxGeometry x="355" y="-30" width="95" height="40" as="geometry" />
        </mxCell>
        <mxCell id="Bv2EEvw_s4JJtscVsMDb-94" value="" style="endArrow=none;html=1;rounded=0;endSize=6;" edge="1" parent="1">
          <mxGeometry width="50" height="50" relative="1" as="geometry">
            <mxPoint x="489.25" y="109.99999999999977" as="sourcePoint" />
            <mxPoint x="488.75" y="69.99999999999977" as="targetPoint" />
          </mxGeometry>
        </mxCell>
        <mxCell id="Bv2EEvw_s4JJtscVsMDb-95" value="nombre" style="ellipse;whiteSpace=wrap;html=1;" vertex="1" parent="1">
          <mxGeometry x="550" y="-20" width="95" height="40" as="geometry" />
        </mxCell>
        <mxCell id="Bv2EEvw_s4JJtscVsMDb-96" value="" style="endArrow=none;html=1;rounded=0;endSize=6;entryX=0.5;entryY=1;entryDx=0;entryDy=0;" edge="1" parent="1" target="Bv2EEvw_s4JJtscVsMDb-93">
          <mxGeometry width="50" height="50" relative="1" as="geometry">
            <mxPoint x="398.75" y="69.99999999999977" as="sourcePoint" />
            <mxPoint x="448.75" y="20" as="targetPoint" />
          </mxGeometry>
        </mxCell>
        <mxCell id="Bv2EEvw_s4JJtscVsMDb-97" value="" style="endArrow=none;html=1;rounded=0;endSize=6;" edge="1" parent="1" target="Bv2EEvw_s4JJtscVsMDb-95">
          <mxGeometry width="50" height="50" relative="1" as="geometry">
            <mxPoint x="581.25" y="69.99999999999977" as="sourcePoint" />
            <mxPoint x="598.75" y="20" as="targetPoint" />
          </mxGeometry>
        </mxCell>
        <mxCell id="Bv2EEvw_s4JJtscVsMDb-98" value="" style="endArrow=none;html=1;rounded=0;endSize=6;" edge="1" parent="1">
          <mxGeometry width="50" height="50" relative="1" as="geometry">
            <mxPoint x="470.0000000000002" y="69.99999999999977" as="sourcePoint" />
            <mxPoint x="470" y="-80" as="targetPoint" />
          </mxGeometry>
        </mxCell>
        <mxCell id="Bv2EEvw_s4JJtscVsMDb-99" value="" style="endArrow=none;html=1;rounded=0;endSize=6;entryX=0.5;entryY=1;entryDx=0;entryDy=0;" edge="1" parent="1" target="Bv2EEvw_s4JJtscVsMDb-103">
          <mxGeometry width="50" height="50" relative="1" as="geometry">
            <mxPoint x="503.1300000000002" y="69.99999999999977" as="sourcePoint" />
            <mxPoint x="510" y="-70" as="targetPoint" />
          </mxGeometry>
        </mxCell>
        <mxCell id="Bv2EEvw_s4JJtscVsMDb-100" value="" style="endArrow=none;html=1;rounded=0;endSize=6;entryX=0;entryY=1;entryDx=0;entryDy=0;" edge="1" parent="1" target="Bv2EEvw_s4JJtscVsMDb-104">
          <mxGeometry width="50" height="50" relative="1" as="geometry">
            <mxPoint x="523.1300000000001" y="69.99999999999977" as="sourcePoint" />
            <mxPoint x="530.0000000000002" y="-70.00000000000023" as="targetPoint" />
          </mxGeometry>
        </mxCell>
        <mxCell id="Bv2EEvw_s4JJtscVsMDb-102" value="telefono" style="ellipse;whiteSpace=wrap;html=1;" vertex="1" parent="1">
          <mxGeometry x="400" y="-110" width="95" height="40" as="geometry" />
        </mxCell>
        <mxCell id="Bv2EEvw_s4JJtscVsMDb-103" value="domicilio" style="ellipse;whiteSpace=wrap;html=1;" vertex="1" parent="1">
          <mxGeometry x="480" y="-140" width="95" height="40" as="geometry" />
        </mxCell>
        <mxCell id="Bv2EEvw_s4JJtscVsMDb-104" value="email" style="ellipse;whiteSpace=wrap;html=1;" vertex="1" parent="1">
          <mxGeometry x="540" y="-110" width="95" height="40" as="geometry" />
        </mxCell>
        <mxCell id="Bv2EEvw_s4JJtscVsMDb-105" value="" style="endArrow=none;html=1;rounded=0;endSize=6;entryX=0.5;entryY=1;entryDx=0;entryDy=0;" edge="1" parent="1" target="Bv2EEvw_s4JJtscVsMDb-106">
          <mxGeometry width="50" height="50" relative="1" as="geometry">
            <mxPoint x="540" y="-140" as="sourcePoint" />
            <mxPoint x="590" y="-190" as="targetPoint" />
          </mxGeometry>
        </mxCell>
        <mxCell id="Bv2EEvw_s4JJtscVsMDb-106" value="provincia" style="ellipse;whiteSpace=wrap;html=1;" vertex="1" parent="1">
          <mxGeometry x="515" y="-240" width="95" height="40" as="geometry" />
        </mxCell>
        <mxCell id="Bv2EEvw_s4JJtscVsMDb-107" value="" style="endArrow=none;html=1;rounded=0;endSize=6;" edge="1" parent="1">
          <mxGeometry width="50" height="50" relative="1" as="geometry">
            <mxPoint x="575.0000000000002" y="-130.00000000000023" as="sourcePoint" />
            <mxPoint x="625.0000000000002" y="-180" as="targetPoint" />
          </mxGeometry>
        </mxCell>
        <mxCell id="Bv2EEvw_s4JJtscVsMDb-108" value="direccion" style="ellipse;whiteSpace=wrap;html=1;" vertex="1" parent="1">
          <mxGeometry x="610" y="-210" width="95" height="40" as="geometry" />
        </mxCell>
        <mxCell id="Bv2EEvw_s4JJtscVsMDb-109" value="" style="endArrow=none;html=1;rounded=0;endSize=6;exitX=0.33;exitY=-0.1;exitDx=0;exitDy=0;exitPerimeter=0;startArrow=none;" edge="1" parent="1" source="Bv2EEvw_s4JJtscVsMDb-110">
          <mxGeometry width="50" height="50" relative="1" as="geometry">
            <mxPoint x="414.0000000000002" y="-140.00000000000023" as="sourcePoint" />
            <mxPoint x="464.0000000000002" y="-190" as="targetPoint" />
          </mxGeometry>
        </mxCell>
        <mxCell id="Bv2EEvw_s4JJtscVsMDb-110" value="codigoPostal" style="ellipse;whiteSpace=wrap;html=1;" vertex="1" parent="1">
          <mxGeometry x="410" y="-210" width="95" height="40" as="geometry" />
        </mxCell>
        <mxCell id="Bv2EEvw_s4JJtscVsMDb-111" value="" style="endArrow=none;html=1;rounded=0;endSize=6;exitX=0.33;exitY=-0.1;exitDx=0;exitDy=0;exitPerimeter=0;" edge="1" parent="1" source="Bv2EEvw_s4JJtscVsMDb-103" target="Bv2EEvw_s4JJtscVsMDb-110">
          <mxGeometry width="50" height="50" relative="1" as="geometry">
            <mxPoint x="511.35000000000014" y="-144.00000000000023" as="sourcePoint" />
            <mxPoint x="464.0000000000002" y="-190" as="targetPoint" />
          </mxGeometry>
        </mxCell>
      </root>
    </mxGraphModel>
  </diagram>
</mxfile>
